<mxfile host="app.diagrams.net" modified="2023-10-17T14:22:33.454Z" agent="Mozilla/5.0 (X11; Linux x86_64; rv:109.0) Gecko/20100101 Firefox/114.0" etag="XImiGGXZ8fjgxSClE3k4" version="22.0.4" type="github">
  <diagram name="Página-1" id="tgJvauN8oL1YI1qP5kh8">
    <mxGraphModel dx="1658" dy="908" grid="1" gridSize="10" guides="1" tooltips="1" connect="1" arrows="1" fold="1" page="1" pageScale="1" pageWidth="1169" pageHeight="827" math="0" shadow="0">
      <root>
        <mxCell id="0" />
        <mxCell id="1" parent="0" />
        <mxCell id="FqyxBrGEKv9SOuB2avVY-1" style="rounded=0;orthogonalLoop=1;jettySize=auto;html=1;exitX=1;exitY=0.5;exitDx=0;exitDy=0;entryX=0;entryY=0.5;entryDx=0;entryDy=0;endArrow=none;endFill=0;" edge="1" parent="1" source="21ie6zG3xMY1rtKyhBJ1-2" target="21ie6zG3xMY1rtKyhBJ1-15">
          <mxGeometry relative="1" as="geometry" />
        </mxCell>
        <mxCell id="21ie6zG3xMY1rtKyhBJ1-2" value="Actores" style="rounded=0;whiteSpace=wrap;html=1;fillColor=#dae8fc;strokeColor=#6c8ebf;" parent="1" vertex="1">
          <mxGeometry x="280" y="370" width="120" height="60" as="geometry" />
        </mxCell>
        <mxCell id="21ie6zG3xMY1rtKyhBJ1-3" value="Personajes" style="rounded=0;whiteSpace=wrap;html=1;fillColor=#dae8fc;strokeColor=#6c8ebf;" parent="1" vertex="1">
          <mxGeometry x="570" y="370" width="120" height="60" as="geometry" />
        </mxCell>
        <mxCell id="21ie6zG3xMY1rtKyhBJ1-4" value="Capítulos" style="rounded=0;whiteSpace=wrap;html=1;fillColor=#dae8fc;strokeColor=#6c8ebf;" parent="1" vertex="1">
          <mxGeometry x="120" y="240" width="120" height="60" as="geometry" />
        </mxCell>
        <mxCell id="21ie6zG3xMY1rtKyhBJ1-5" value="Películas" style="rounded=0;whiteSpace=wrap;html=1;fillColor=#dae8fc;strokeColor=#6c8ebf;" parent="1" vertex="1">
          <mxGeometry x="240" y="240" width="120" height="60" as="geometry" />
        </mxCell>
        <mxCell id="21ie6zG3xMY1rtKyhBJ1-6" value="Planetas" style="rounded=0;whiteSpace=wrap;html=1;fillColor=#dae8fc;strokeColor=#6c8ebf;" parent="1" vertex="1">
          <mxGeometry x="360" y="240" width="120" height="60" as="geometry" />
        </mxCell>
        <mxCell id="21ie6zG3xMY1rtKyhBJ1-12" style="rounded=0;orthogonalLoop=1;jettySize=auto;html=1;exitX=1;exitY=0.5;exitDx=0;exitDy=0;entryX=0;entryY=0.5;entryDx=0;entryDy=0;endArrow=none;endFill=0;" parent="1" source="21ie6zG3xMY1rtKyhBJ1-8" target="21ie6zG3xMY1rtKyhBJ1-2" edge="1">
          <mxGeometry relative="1" as="geometry" />
        </mxCell>
        <mxCell id="21ie6zG3xMY1rtKyhBJ1-8" value="Nombre" style="ellipse;whiteSpace=wrap;html=1;fillColor=#fff2cc;strokeColor=#d6b656;movable=1;resizable=1;rotatable=1;deletable=1;editable=1;locked=0;connectable=1;" parent="1" vertex="1">
          <mxGeometry x="140" y="340" width="50" height="30" as="geometry" />
        </mxCell>
        <mxCell id="21ie6zG3xMY1rtKyhBJ1-13" style="rounded=0;orthogonalLoop=1;jettySize=auto;html=1;entryX=0;entryY=0.5;entryDx=0;entryDy=0;endArrow=none;endFill=0;" parent="1" source="21ie6zG3xMY1rtKyhBJ1-9" target="21ie6zG3xMY1rtKyhBJ1-2" edge="1">
          <mxGeometry relative="1" as="geometry" />
        </mxCell>
        <mxCell id="21ie6zG3xMY1rtKyhBJ1-9" value="Fecha de Nacimiento" style="ellipse;whiteSpace=wrap;html=1;fillColor=#fff2cc;strokeColor=#d6b656;" parent="1" vertex="1">
          <mxGeometry x="130" y="380" width="70" height="40" as="geometry" />
        </mxCell>
        <mxCell id="21ie6zG3xMY1rtKyhBJ1-14" style="rounded=0;orthogonalLoop=1;jettySize=auto;html=1;exitX=1;exitY=0.5;exitDx=0;exitDy=0;entryX=0;entryY=0.5;entryDx=0;entryDy=0;endArrow=none;endFill=0;" parent="1" source="21ie6zG3xMY1rtKyhBJ1-11" target="21ie6zG3xMY1rtKyhBJ1-2" edge="1">
          <mxGeometry relative="1" as="geometry" />
        </mxCell>
        <mxCell id="21ie6zG3xMY1rtKyhBJ1-11" value="Nacionalidad" style="ellipse;whiteSpace=wrap;html=1;fillColor=#fff2cc;strokeColor=#d6b656;movable=1;resizable=1;rotatable=1;deletable=1;editable=1;locked=0;connectable=1;" parent="1" vertex="1">
          <mxGeometry x="127.5" y="430" width="75" height="30" as="geometry" />
        </mxCell>
        <mxCell id="FqyxBrGEKv9SOuB2avVY-2" style="edgeStyle=orthogonalEdgeStyle;rounded=0;orthogonalLoop=1;jettySize=auto;html=1;entryX=0;entryY=0.5;entryDx=0;entryDy=0;endArrow=none;endFill=0;" edge="1" parent="1" source="21ie6zG3xMY1rtKyhBJ1-15" target="21ie6zG3xMY1rtKyhBJ1-3">
          <mxGeometry relative="1" as="geometry" />
        </mxCell>
        <mxCell id="21ie6zG3xMY1rtKyhBJ1-15" value="actuan" style="rhombus;whiteSpace=wrap;html=1;fillColor=#ffe6cc;strokeColor=#d79b00;" parent="1" vertex="1">
          <mxGeometry x="450" y="360" width="80" height="80" as="geometry" />
        </mxCell>
      </root>
    </mxGraphModel>
  </diagram>
</mxfile>
